<svg width="41" height="41" viewBox="0 0 41 41" fill="none" xmlns="http://www.w3.org/2000/svg">
<g clip-path="url(#clip0)">
<mask id="path-1-inside-1" fill="white">
<path d="M41 17.1935H39.514L37.2993 18.3589C37.05 18.2213 36.7907 18.1048 36.5111 18.0347L33.7252 17.3376V17.0208C34.9577 16.1606 35.7097 14.7395 35.7097 13.2258V12.0698C35.7097 9.50088 33.6967 7.35104 31.2227 7.27613C31.0971 7.2729 30.9734 7.27742 30.8491 7.28356L31.5714 5.59255L28.0696 2.09172L26.0054 3.43529C25.2211 2.99357 24.3915 2.64968 23.5301 2.40848L23.0202 0H17.9804L17.4706 2.40912C16.6091 2.65033 15.7789 2.99421 14.9953 3.43593L12.931 2.09236L9.43211 5.59126L10.1422 7.28356C10.115 7.28227 10.0892 7.27742 10.0621 7.27678C8.79568 7.23997 7.6029 7.70203 6.69686 8.5816C5.78952 9.46052 5.29032 10.6401 5.29032 11.9032V13.2258C5.29032 14.7395 6.0417 16.16 7.27419 17.0202V17.3376L5.45694 17.7919L2.16308 15.871H0V29.5737L6.5057 31.7419H7.77274L7.93096 31.1878L9.92517 32.3848C9.95778 33.4691 10.8273 34.3416 11.9107 34.3797C11.9488 35.4585 12.8157 36.3254 13.8945 36.3635C13.9326 37.4423 14.7996 38.3093 15.8784 38.3474C15.9178 39.4514 16.8219 40.3387 17.9349 40.3387C18.3482 40.3387 18.7535 40.2099 19.0941 39.9803L19.6798 40.4976C20.047 40.8208 20.5197 41 21.0105 41H21.1329C22.2333 41 23.1287 40.1104 23.1426 39.0135C24.2311 38.9997 25.1126 38.1182 25.1265 37.0297C26.2156 37.0158 27.0977 36.133 27.1103 35.0439C28.2095 35.018 29.0968 34.1201 29.0968 33.0148C29.0968 32.9483 29.0935 32.8827 29.0868 32.8165L41 26.8604V17.1935ZM34.3871 12.0698V13.2258C34.3871 14.3995 33.7529 15.4961 32.7319 16.0873L32.4013 16.2785L32.4039 18.3711L35.7077 19.1965L28.4355 23.0241V21.2427C28.4355 20.3537 28.0764 19.5397 27.4884 18.9382L29.7581 18.3711V16.2768L29.4281 16.086C28.4077 15.4961 27.7742 14.3995 27.7742 13.2258V11.9032C27.7742 11.0014 28.1307 10.158 28.7787 9.52994C29.4261 8.90223 30.285 8.56384 31.183 8.59871C32.9496 8.65167 34.3871 10.209 34.3871 12.0698ZM21.4971 22.5042L18.5035 21.5475C17.1393 21.1103 15.6627 21.045 14.2662 21.3544L13.8871 21.4383V21.2427C13.8871 20.3308 14.5054 19.5391 15.3895 19.3176L19.1774 18.3711V16.2768L18.8474 16.086C17.8271 15.4961 17.1935 14.3995 17.1935 13.2258V11.9032C17.1935 11.0014 17.55 10.158 18.1981 9.52994C18.8455 8.90223 19.7099 8.56384 20.6024 8.59871C22.3689 8.65167 23.8065 10.209 23.8065 12.0698V13.2258C23.8065 14.3995 23.1723 15.4961 22.1513 16.0873L21.8206 16.2785L21.8232 18.3711L25.6105 19.3176C26.4946 19.5391 27.1129 20.3308 27.1129 21.2427V23.7206L26.9495 23.8065H26.5443L22.4787 22.6447C22.1584 22.5539 21.8284 22.5168 21.4971 22.5042V22.5042ZM14.0353 9.8974C15.2772 7.49118 17.7767 5.95161 20.5 5.95161C23.1975 5.95161 25.6864 7.47051 26.9376 9.84412C26.6227 10.4754 26.4516 11.1745 26.4516 11.9032V13.2258C26.4516 14.7395 27.203 16.16 28.4355 17.0202V17.3376L25.7903 17.9998L23.1445 17.3376V17.0208C24.377 16.1606 25.129 14.7395 25.129 13.2258V12.0698C25.129 9.50088 23.1161 7.35104 20.6421 7.27613C19.3763 7.239 18.1829 7.70138 17.2769 8.58095C16.3702 9.46052 15.871 10.6401 15.871 11.9032V13.2258C15.871 14.7395 16.6223 16.16 17.8548 17.0202V17.3376L15.2097 17.9998L12.5639 17.3376V17.0208C13.7964 16.1606 14.5484 14.7395 14.5484 13.2258V12.0698C14.5484 11.2917 14.3611 10.5529 14.0353 9.8974V9.8974ZM10.994 5.89801L13.1067 3.78531L14.9662 4.99552L15.322 4.77724C16.2136 4.2309 17.1771 3.83083 18.1855 3.58963L18.5923 3.49212L19.0525 1.32258H21.9482L22.407 3.49147L22.8139 3.58866C23.8223 3.83019 24.7858 4.23026 25.6773 4.7766L26.0331 4.99487L27.8927 3.78466L30.0028 5.89543L29.2527 7.65166C28.7422 7.87123 28.2689 8.18024 27.8569 8.57966C27.8297 8.60614 27.8065 8.63455 27.78 8.66168C26.222 6.18507 23.4677 4.62903 20.5 4.62903C17.511 4.62903 14.7489 6.1996 13.1948 8.70139C12.7789 8.26613 12.2842 7.91353 11.736 7.66716L10.994 5.89801ZM8.59677 18.3711V16.2768L8.26678 16.086C7.24642 15.4961 6.6129 14.3995 6.6129 13.2258V11.9032C6.6129 11.0014 6.96938 10.158 7.61743 9.52994C8.26484 8.90223 9.12568 8.56384 10.0217 8.59871C11.7883 8.65167 13.2258 10.209 13.2258 12.0698V13.2258C13.2258 14.3995 12.5916 15.4961 11.5706 16.0873L11.24 16.2785L11.2426 18.3711L13.5116 18.9382C12.9236 19.5397 12.5645 20.3537 12.5645 21.2427V21.7325L10.5019 22.191L10.5555 22.0037L10.5806 20.7816L7.09305 18.747L8.59677 18.3711ZM1.32258 17.1935H1.80466L6.56059 19.9675L4.16083 29.5663L1.32258 28.6199V17.1935ZM6.7201 30.4194L5.41851 29.9857L7.74982 20.6614L9.25806 21.541V21.7299L6.77564 30.4194H6.7201ZM11.2419 32.3231C11.2419 32.1281 11.3207 31.937 11.4589 31.7988L12.6213 30.6363C12.7595 30.4981 12.9507 30.4194 13.1457 30.4194C13.5545 30.4194 13.8871 30.7519 13.8871 31.1607C13.8871 31.3558 13.8083 31.5469 13.6701 31.6851L12.5077 32.8475C12.3695 32.9857 12.1783 33.0645 11.9833 33.0645C11.5745 33.0645 11.2419 32.7319 11.2419 32.3231ZM13.2258 34.307C13.2258 34.112 13.3046 33.9208 13.4428 33.7826L14.6052 32.6202C14.7434 32.482 14.9346 32.4032 15.1296 32.4032C15.5384 32.4032 15.871 32.7358 15.871 33.1446C15.871 33.3396 15.7922 33.5308 15.654 33.669L14.4916 34.8314C14.3534 34.9696 14.1622 35.0484 13.9672 35.0484C13.5584 35.0484 13.2258 34.7158 13.2258 34.307ZM15.2097 36.2909C15.2097 36.0959 15.2885 35.9047 15.4267 35.7665L16.5891 34.6041C16.7273 34.4659 16.9184 34.3871 17.1135 34.3871C17.5223 34.3871 17.8548 34.7197 17.8548 35.1285C17.8548 35.3235 17.7761 35.5146 17.6379 35.6528L16.4754 36.8153C16.3372 36.9535 16.1461 37.0323 15.951 37.0323C15.5423 37.0323 15.2097 36.6997 15.2097 36.2909ZM17.9349 39.0161C17.5261 39.0161 17.1935 38.6835 17.1935 38.2748C17.1935 38.0797 17.2723 37.8886 17.4105 37.7504L18.573 36.588C18.7112 36.4498 18.9023 36.371 19.0973 36.371C19.5061 36.371 19.8387 36.7036 19.8387 37.1123C19.8387 37.3074 19.7599 37.4985 19.6217 37.6367L18.4593 38.7991C18.3211 38.9373 18.1299 39.0161 17.9349 39.0161ZM21.1329 39.6774H21.0105C20.8419 39.6774 20.6805 39.6161 20.5549 39.5047L20.0602 39.0684L20.5568 38.5718C20.7341 38.3946 20.8717 38.1837 20.9734 37.9574L21.5746 38.4578C21.7318 38.5889 21.8226 38.782 21.8226 38.9877C21.8226 39.3681 21.5132 39.6774 21.1329 39.6774V39.6774ZM27.0632 33.7258H26.9489C26.7829 33.7258 26.6208 33.667 26.4939 33.5605L22.9078 30.5721L22.0606 31.5886L25.543 34.4901C25.6996 34.6212 25.7903 34.8143 25.7903 35.02C25.7903 35.4003 25.481 35.7097 25.1006 35.7097H24.9563C24.7958 35.7097 24.6389 35.6528 24.5152 35.5495L20.9233 32.5566L20.076 33.5731L23.5585 36.4749C23.7157 36.6051 23.8065 36.7982 23.8065 37.0038C23.8065 37.3842 23.4971 37.6935 23.1167 37.6935C22.863 37.6935 22.6156 37.6035 22.4209 37.4417L20.945 36.2115C20.6198 35.5469 19.9517 35.0836 19.1693 35.0558C19.1312 33.977 18.2643 33.11 17.1855 33.0719C17.1474 31.9931 16.2804 31.1262 15.2016 31.0881C15.1629 29.9841 14.2588 29.0968 13.1457 29.0968C12.6023 29.0968 12.0705 29.317 11.6862 29.7012L10.5238 30.8637C10.4544 30.9331 10.3969 31.0119 10.3385 31.09L8.30714 29.8711L10.0879 23.6385L14.5523 22.646C15.7234 22.3841 16.9582 22.4409 18.1002 22.8064L19.0744 23.118L15.7718 24.7693C15.0172 25.1474 14.5484 25.9066 14.5484 26.7506V26.8814C14.5484 28.1029 15.5423 29.0968 16.7638 29.0968C17.1651 29.0968 17.56 28.9876 17.9033 28.7807L20.3657 27.3041C20.8604 27.0076 21.5242 27.0725 21.9514 27.4568L27.5388 32.4852C27.6883 32.6209 27.7742 32.8133 27.7742 33.0148C27.7742 33.4071 27.4555 33.7258 27.0632 33.7258V33.7258ZM39.6774 26.0428L28.5366 31.6137C28.5004 31.5753 28.4626 31.5388 28.4229 31.5033L22.8365 26.4749C22.347 26.0331 21.7141 25.7903 21.0547 25.7903C20.5727 25.7903 20.0993 25.9214 19.6847 26.17L17.2213 27.6473C17.0831 27.7306 16.9252 27.7742 16.7638 27.7742C16.271 27.7742 15.871 27.3741 15.871 26.8814V26.7506C15.871 26.41 16.0602 26.1045 16.3644 25.9524L20.0531 24.108C20.6844 23.7919 21.4338 23.7212 22.1142 23.9169L26.2698 25.1038L27.2763 25.129L39.6774 18.602V26.0428Z"/>
</mask>
<path d="M41 17.1935H39.514L37.2993 18.3589C37.05 18.2213 36.7907 18.1048 36.5111 18.0347L33.7252 17.3376V17.0208C34.9577 16.1606 35.7097 14.7395 35.7097 13.2258V12.0698C35.7097 9.50088 33.6967 7.35104 31.2227 7.27613C31.0971 7.2729 30.9734 7.27742 30.8491 7.28356L31.5714 5.59255L28.0696 2.09172L26.0054 3.43529C25.2211 2.99357 24.3915 2.64968 23.5301 2.40848L23.0202 0H17.9804L17.4706 2.40912C16.6091 2.65033 15.7789 2.99421 14.9953 3.43593L12.931 2.09236L9.43211 5.59126L10.1422 7.28356C10.115 7.28227 10.0892 7.27742 10.0621 7.27678C8.79568 7.23997 7.6029 7.70203 6.69686 8.5816C5.78952 9.46052 5.29032 10.6401 5.29032 11.9032V13.2258C5.29032 14.7395 6.0417 16.16 7.27419 17.0202V17.3376L5.45694 17.7919L2.16308 15.871H0V29.5737L6.5057 31.7419H7.77274L7.93096 31.1878L9.92517 32.3848C9.95778 33.4691 10.8273 34.3416 11.9107 34.3797C11.9488 35.4585 12.8157 36.3254 13.8945 36.3635C13.9326 37.4423 14.7996 38.3093 15.8784 38.3474C15.9178 39.4514 16.8219 40.3387 17.9349 40.3387C18.3482 40.3387 18.7535 40.2099 19.0941 39.9803L19.6798 40.4976C20.047 40.8208 20.5197 41 21.0105 41H21.1329C22.2333 41 23.1287 40.1104 23.1426 39.0135C24.2311 38.9997 25.1126 38.1182 25.1265 37.0297C26.2156 37.0158 27.0977 36.133 27.1103 35.0439C28.2095 35.018 29.0968 34.1201 29.0968 33.0148C29.0968 32.9483 29.0935 32.8827 29.0868 32.8165L41 26.8604V17.1935ZM34.3871 12.0698V13.2258C34.3871 14.3995 33.7529 15.4961 32.7319 16.0873L32.4013 16.2785L32.4039 18.3711L35.7077 19.1965L28.4355 23.0241V21.2427C28.4355 20.3537 28.0764 19.5397 27.4884 18.9382L29.7581 18.3711V16.2768L29.4281 16.086C28.4077 15.4961 27.7742 14.3995 27.7742 13.2258V11.9032C27.7742 11.0014 28.1307 10.158 28.7787 9.52994C29.4261 8.90223 30.285 8.56384 31.183 8.59871C32.9496 8.65167 34.3871 10.209 34.3871 12.0698ZM21.4971 22.5042L18.5035 21.5475C17.1393 21.1103 15.6627 21.045 14.2662 21.3544L13.8871 21.4383V21.2427C13.8871 20.3308 14.5054 19.5391 15.3895 19.3176L19.1774 18.3711V16.2768L18.8474 16.086C17.8271 15.4961 17.1935 14.3995 17.1935 13.2258V11.9032C17.1935 11.0014 17.55 10.158 18.1981 9.52994C18.8455 8.90223 19.7099 8.56384 20.6024 8.59871C22.3689 8.65167 23.8065 10.209 23.8065 12.0698V13.2258C23.8065 14.3995 23.1723 15.4961 22.1513 16.0873L21.8206 16.2785L21.8232 18.3711L25.6105 19.3176C26.4946 19.5391 27.1129 20.3308 27.1129 21.2427V23.7206L26.9495 23.8065H26.5443L22.4787 22.6447C22.1584 22.5539 21.8284 22.5168 21.4971 22.5042V22.5042ZM14.0353 9.8974C15.2772 7.49118 17.7767 5.95161 20.5 5.95161C23.1975 5.95161 25.6864 7.47051 26.9376 9.84412C26.6227 10.4754 26.4516 11.1745 26.4516 11.9032V13.2258C26.4516 14.7395 27.203 16.16 28.4355 17.0202V17.3376L25.7903 17.9998L23.1445 17.3376V17.0208C24.377 16.1606 25.129 14.7395 25.129 13.2258V12.0698C25.129 9.50088 23.1161 7.35104 20.6421 7.27613C19.3763 7.239 18.1829 7.70138 17.2769 8.58095C16.3702 9.46052 15.871 10.6401 15.871 11.9032V13.2258C15.871 14.7395 16.6223 16.16 17.8548 17.0202V17.3376L15.2097 17.9998L12.5639 17.3376V17.0208C13.7964 16.1606 14.5484 14.7395 14.5484 13.2258V12.0698C14.5484 11.2917 14.3611 10.5529 14.0353 9.8974V9.8974ZM10.994 5.89801L13.1067 3.78531L14.9662 4.99552L15.322 4.77724C16.2136 4.2309 17.1771 3.83083 18.1855 3.58963L18.5923 3.49212L19.0525 1.32258H21.9482L22.407 3.49147L22.8139 3.58866C23.8223 3.83019 24.7858 4.23026 25.6773 4.7766L26.0331 4.99487L27.8927 3.78466L30.0028 5.89543L29.2527 7.65166C28.7422 7.87123 28.2689 8.18024 27.8569 8.57966C27.8297 8.60614 27.8065 8.63455 27.78 8.66168C26.222 6.18507 23.4677 4.62903 20.5 4.62903C17.511 4.62903 14.7489 6.1996 13.1948 8.70139C12.7789 8.26613 12.2842 7.91353 11.736 7.66716L10.994 5.89801ZM8.59677 18.3711V16.2768L8.26678 16.086C7.24642 15.4961 6.6129 14.3995 6.6129 13.2258V11.9032C6.6129 11.0014 6.96938 10.158 7.61743 9.52994C8.26484 8.90223 9.12568 8.56384 10.0217 8.59871C11.7883 8.65167 13.2258 10.209 13.2258 12.0698V13.2258C13.2258 14.3995 12.5916 15.4961 11.5706 16.0873L11.24 16.2785L11.2426 18.3711L13.5116 18.9382C12.9236 19.5397 12.5645 20.3537 12.5645 21.2427V21.7325L10.5019 22.191L10.5555 22.0037L10.5806 20.7816L7.09305 18.747L8.59677 18.3711ZM1.32258 17.1935H1.80466L6.56059 19.9675L4.16083 29.5663L1.32258 28.6199V17.1935ZM6.7201 30.4194L5.41851 29.9857L7.74982 20.6614L9.25806 21.541V21.7299L6.77564 30.4194H6.7201ZM11.2419 32.3231C11.2419 32.1281 11.3207 31.937 11.4589 31.7988L12.6213 30.6363C12.7595 30.4981 12.9507 30.4194 13.1457 30.4194C13.5545 30.4194 13.8871 30.7519 13.8871 31.1607C13.8871 31.3558 13.8083 31.5469 13.6701 31.6851L12.5077 32.8475C12.3695 32.9857 12.1783 33.0645 11.9833 33.0645C11.5745 33.0645 11.2419 32.7319 11.2419 32.3231ZM13.2258 34.307C13.2258 34.112 13.3046 33.9208 13.4428 33.7826L14.6052 32.6202C14.7434 32.482 14.9346 32.4032 15.1296 32.4032C15.5384 32.4032 15.871 32.7358 15.871 33.1446C15.871 33.3396 15.7922 33.5308 15.654 33.669L14.4916 34.8314C14.3534 34.9696 14.1622 35.0484 13.9672 35.0484C13.5584 35.0484 13.2258 34.7158 13.2258 34.307ZM15.2097 36.2909C15.2097 36.0959 15.2885 35.9047 15.4267 35.7665L16.5891 34.6041C16.7273 34.4659 16.9184 34.3871 17.1135 34.3871C17.5223 34.3871 17.8548 34.7197 17.8548 35.1285C17.8548 35.3235 17.7761 35.5146 17.6379 35.6528L16.4754 36.8153C16.3372 36.9535 16.1461 37.0323 15.951 37.0323C15.5423 37.0323 15.2097 36.6997 15.2097 36.2909ZM17.9349 39.0161C17.5261 39.0161 17.1935 38.6835 17.1935 38.2748C17.1935 38.0797 17.2723 37.8886 17.4105 37.7504L18.573 36.588C18.7112 36.4498 18.9023 36.371 19.0973 36.371C19.5061 36.371 19.8387 36.7036 19.8387 37.1123C19.8387 37.3074 19.7599 37.4985 19.6217 37.6367L18.4593 38.7991C18.3211 38.9373 18.1299 39.0161 17.9349 39.0161ZM21.1329 39.6774H21.0105C20.8419 39.6774 20.6805 39.6161 20.5549 39.5047L20.0602 39.0684L20.5568 38.5718C20.7341 38.3946 20.8717 38.1837 20.9734 37.9574L21.5746 38.4578C21.7318 38.5889 21.8226 38.782 21.8226 38.9877C21.8226 39.3681 21.5132 39.6774 21.1329 39.6774V39.6774ZM27.0632 33.7258H26.9489C26.7829 33.7258 26.6208 33.667 26.4939 33.5605L22.9078 30.5721L22.0606 31.5886L25.543 34.4901C25.6996 34.6212 25.7903 34.8143 25.7903 35.02C25.7903 35.4003 25.481 35.7097 25.1006 35.7097H24.9563C24.7958 35.7097 24.6389 35.6528 24.5152 35.5495L20.9233 32.5566L20.076 33.5731L23.5585 36.4749C23.7157 36.6051 23.8065 36.7982 23.8065 37.0038C23.8065 37.3842 23.4971 37.6935 23.1167 37.6935C22.863 37.6935 22.6156 37.6035 22.4209 37.4417L20.945 36.2115C20.6198 35.5469 19.9517 35.0836 19.1693 35.0558C19.1312 33.977 18.2643 33.11 17.1855 33.0719C17.1474 31.9931 16.2804 31.1262 15.2016 31.0881C15.1629 29.9841 14.2588 29.0968 13.1457 29.0968C12.6023 29.0968 12.0705 29.317 11.6862 29.7012L10.5238 30.8637C10.4544 30.9331 10.3969 31.0119 10.3385 31.09L8.30714 29.8711L10.0879 23.6385L14.5523 22.646C15.7234 22.3841 16.9582 22.4409 18.1002 22.8064L19.0744 23.118L15.7718 24.7693C15.0172 25.1474 14.5484 25.9066 14.5484 26.7506V26.8814C14.5484 28.1029 15.5423 29.0968 16.7638 29.0968C17.1651 29.0968 17.56 28.9876 17.9033 28.7807L20.3657 27.3041C20.8604 27.0076 21.5242 27.0725 21.9514 27.4568L27.5388 32.4852C27.6883 32.6209 27.7742 32.8133 27.7742 33.0148C27.7742 33.4071 27.4555 33.7258 27.0632 33.7258V33.7258ZM39.6774 26.0428L28.5366 31.6137C28.5004 31.5753 28.4626 31.5388 28.4229 31.5033L22.8365 26.4749C22.347 26.0331 21.7141 25.7903 21.0547 25.7903C20.5727 25.7903 20.0993 25.9214 19.6847 26.17L17.2213 27.6473C17.0831 27.7306 16.9252 27.7742 16.7638 27.7742C16.271 27.7742 15.871 27.3741 15.871 26.8814V26.7506C15.871 26.41 16.0602 26.1045 16.3644 25.9524L20.0531 24.108C20.6844 23.7919 21.4338 23.7212 22.1142 23.9169L26.2698 25.1038L27.2763 25.129L39.6774 18.602V26.0428Z" fill="black" stroke="black" stroke-width="6" mask="url(#path-1-inside-1)"/>
</g>
<defs>
<clipPath id="clip0">
<rect width="41" height="41" fill="white"/>
</clipPath>
</defs>
</svg>
