<svg width="34" height="34" viewBox="0 0 34 34" fill="none" xmlns="http://www.w3.org/2000/svg">
<path d="M16.6774 33.3548C25.8727 33.3548 33.3548 25.8727 33.3548 16.6774C33.3548 7.48214 25.8727 0 16.6774 0C7.48214 0 0 7.48214 0 16.6774C0 25.8727 7.48214 33.3548 16.6774 33.3548ZM16.6774 31.2702C9.10469 31.2702 2.8644 25.4706 2.15542 18.0806L4.60095 15.6351H6.25403C6.53039 15.6351 6.79607 15.5257 6.991 15.3297L8.7703 13.5504H10.4234C10.6997 13.5504 10.9654 13.441 11.1604 13.245L15.3297 9.07568C15.5257 8.88075 15.6351 8.61507 15.6351 8.33871V6.68563L17.4144 4.90632C17.6103 4.71139 17.7198 4.44572 17.7198 4.16935V2.13761C19.5749 2.27045 21.3313 2.74988 22.9314 3.5128V5.82244L21.1521 7.60174C20.9562 7.79667 20.8468 8.06235 20.8468 8.33871V9.99179L19.0675 11.7711C18.8715 11.966 18.7621 12.2317 18.7621 12.5081V14.5927C18.7621 14.8691 18.8715 15.1348 19.0675 15.3297L20.8468 17.109V18.7621C20.8468 19.0385 20.9562 19.3041 21.1521 19.4991L23.2368 21.5837C23.4318 21.7797 23.6974 21.8891 23.9738 21.8891H25.6269L28.6862 24.9484C26.0513 28.7625 21.6535 31.2702 16.6774 31.2702V31.2702ZM31.2702 16.6774C31.2702 18.9769 30.721 21.146 29.7693 23.0836L26.7954 20.1098C26.6005 19.9139 26.3348 19.8044 26.0585 19.8044H24.4054L22.9314 18.3305V16.6774C22.9314 16.4011 22.822 16.1354 22.6261 15.9405L20.8468 14.1611V12.9397L22.6261 11.1604C22.822 10.9654 22.9314 10.6997 22.9314 10.4234V8.7703L24.7108 6.991C24.9067 6.79607 25.0161 6.53039 25.0161 6.25403V4.71852C28.7916 7.35897 31.2702 11.7314 31.2702 16.6774ZM15.6351 2.13761V3.73776L13.8558 5.51707C13.6598 5.712 13.5504 5.97767 13.5504 6.25403V7.90712L9.99179 11.4657H8.33871C8.06235 11.4657 7.79667 11.5752 7.60174 11.7711L5.82244 13.5504H4.16935C3.89299 13.5504 3.62732 13.6598 3.43239 13.8558L2.1712 15.117C2.91529 8.1448 8.59319 2.63944 15.6351 2.13761Z" fill="black"/>
<path d="M18.7621 21.4575V18.7621C18.7621 18.4857 18.6527 18.2201 18.4567 18.0251L16.372 15.9404C16.1771 15.7445 15.9114 15.6351 15.6351 15.6351H13.5504C13.274 15.6351 13.0084 15.7445 12.8134 15.9404L11.0341 17.7197H7.29637C6.72125 17.7197 6.25403 18.187 6.25403 18.7621V23.9738C6.25403 24.5489 6.72125 25.0161 7.29637 25.0161H8.94945L10.7288 26.7954C10.9237 26.9914 11.1894 27.1008 11.4657 27.1008H13.1188L14.8981 28.8801C15.093 29.076 15.3587 29.1855 15.6351 29.1855H17.7198C17.9961 29.1855 18.2618 29.076 18.4567 28.8801L20.5414 26.7954C20.7373 26.6005 20.8468 26.3348 20.8468 26.0585V23.9738C20.8468 23.6974 20.7373 23.4317 20.5414 23.2368L18.7621 21.4575ZM18.7621 25.6269L17.2882 27.1008H16.0667L14.2874 25.3215C14.0924 25.1255 13.8268 25.0161 13.5504 25.0161H11.8973L10.118 23.2368C9.92308 23.0409 9.65741 22.9314 9.38105 22.9314H8.33871V19.8044H11.4657C11.7421 19.8044 12.0078 19.695 12.2027 19.4991L13.982 17.7197H15.2035L16.6774 19.1937V21.8891C16.6774 22.1655 16.7868 22.4311 16.9828 22.6261L18.7621 24.4054V25.6269Z" fill="black"/>
</svg>
