<svg width="49" height="26" viewBox="0 0 49 26" fill="none" xmlns="http://www.w3.org/2000/svg">
<path d="M43.7693 15.5074C44.2946 14.7815 44.6053 13.8908 44.6053 12.9285V7.17773C44.6053 6.64917 44.1768 6.2207 43.6483 6.2207H39.3711C37.3939 6.2207 35.7853 7.82928 35.7853 9.80651V12.9285C35.7853 13.8903 36.0957 14.7803 36.6202 15.5059C35.966 15.6121 35.3366 15.8216 34.7495 16.1285C33.4198 14.1443 31.2413 12.776 28.7379 12.5451C28.7282 12.5424 28.7182 12.5404 28.7084 12.538C29.604 11.5378 30.15 10.2182 30.15 8.77311V0.957031C30.15 0.428463 29.7215 0 29.193 0H23.3798C20.882 0 18.85 2.03206 18.85 4.52982V8.77301C18.85 10.2181 19.396 11.5377 20.2916 12.5379C20.2818 12.5403 20.2718 12.5424 20.2621 12.5451C17.7584 12.7759 15.5798 14.1444 14.2502 16.1288C13.663 15.8221 13.0334 15.6123 12.3795 15.5062C12.9041 14.7806 13.2147 13.8904 13.2147 12.9285V7.17773C13.2147 6.64917 12.7861 6.2207 12.2577 6.2207H7.98049C6.00327 6.2207 4.39469 7.82928 4.39469 9.80651V12.9285C4.39469 13.8909 4.70544 14.7815 5.23065 15.5074C2.26836 15.9915 0 18.5677 0 21.6648V24.5C0 25.0286 0.428559 25.457 0.957031 25.457H48.043C48.5714 25.457 49 25.0286 49 24.5V21.6648C49 18.5677 46.7316 15.9915 43.7693 15.5074ZM6.30875 9.80651C6.30875 8.88469 7.05868 8.13477 7.98049 8.13477H11.3006V9.30033C11.3006 9.87187 10.8357 10.3368 10.2643 10.3368H6.30875V9.80651ZM6.30875 12.2508H10.2643C10.6289 12.2508 10.978 12.1839 11.3006 12.0623V12.9285C11.3006 14.3047 10.181 15.4245 8.80469 15.4245C7.42838 15.4245 6.30875 14.3047 6.30875 12.9285V12.2508V12.2508ZM9.42169 17.3385L8.80469 17.9555L8.18769 17.3385H9.42169ZM12.877 20.6466V23.543H1.91406V21.6648C1.91406 19.5183 3.48579 17.7326 5.53863 17.3963L8.12797 19.9857C8.30751 20.1651 8.55088 20.266 8.80469 20.266C9.05849 20.266 9.30187 20.1651 9.4814 19.9857L12.0715 17.3955C12.529 17.4699 12.9689 17.6174 13.3789 17.8331C13.0547 18.7103 12.877 19.6581 12.877 20.6466ZM24.5001 12.5091C22.4401 12.5091 20.7641 10.8331 20.7641 8.77311V7.5082H26.4837C27.118 7.5082 27.7151 7.34617 28.2361 7.06155V8.77311C28.2361 10.8331 26.5601 12.5091 24.5001 12.5091ZM26.1683 14.423L24.5 16.0913L22.8317 14.423H26.1683V14.423ZM20.7639 4.52982H20.764C20.764 3.08748 21.9375 1.91406 23.3798 1.91406H28.236V3.84191C28.236 4.80813 27.4499 5.59423 26.4836 5.59423H20.7639V4.52982ZM34.2088 23.543H32.3477H16.6523H14.7912V21.6289H21.0228C21.5513 21.6289 21.9799 21.2004 21.9799 20.6719C21.9799 20.1433 21.5513 19.7148 21.0228 19.7148H14.8612C15.2713 16.9949 17.4486 14.8478 20.1822 14.4804L23.8233 18.1215C24.0102 18.3084 24.2551 18.4018 24.5 18.4018C24.7449 18.4018 24.9898 18.3084 25.1767 18.1215L28.8178 14.4804C31.857 14.8888 34.2088 17.4974 34.2088 20.6466V23.543V23.543ZM37.6994 9.80651C37.6994 8.88469 38.4493 8.13477 39.3711 8.13477H42.6912V9.30033C42.6912 9.87187 42.2263 10.3368 41.6549 10.3368H37.6994V9.80651ZM37.6994 12.2508H41.6549C42.0195 12.2508 42.3686 12.1839 42.6912 12.0623V12.9285C42.6912 14.3047 41.5716 15.4245 40.1953 15.4245C38.819 15.4245 37.6994 14.3047 37.6994 12.9285V12.2508V12.2508ZM40.8123 17.3385L40.1953 17.9555L39.5783 17.3385H40.8123ZM36.1229 23.543V20.6466C36.1229 19.658 35.9452 18.7102 35.6209 17.8329C36.0307 17.617 36.4705 17.4696 36.9281 17.3953L39.5185 19.9857C39.698 20.1651 39.9414 20.266 40.1952 20.266C40.449 20.266 40.6924 20.1651 40.8719 19.9857L43.4613 17.3963C45.5141 17.7327 47.0858 19.5183 47.0858 21.6648V23.543H36.1229Z" fill="black"/>
</svg>
