<svg width="24" height="21" viewBox="0 0 24 21" fill="none" xmlns="http://www.w3.org/2000/svg">
<ellipse cx="12" cy="10.5" rx="12" ry="10.5" fill="#CE2B1E"/>
<path d="M13.4248 12.7769H12.0981L11.9521 6.25781H13.5771L13.4248 12.7769ZM11.9077 14.77C11.9077 14.5288 11.986 14.3299 12.1426 14.1733C12.2992 14.0125 12.5129 13.9321 12.7837 13.9321C13.0545 13.9321 13.2682 14.0125 13.4248 14.1733C13.5814 14.3299 13.6597 14.5288 13.6597 14.77C13.6597 15.0028 13.5835 15.1974 13.4312 15.354C13.2788 15.5106 13.063 15.5889 12.7837 15.5889C12.5044 15.5889 12.2886 15.5106 12.1362 15.354C11.9839 15.1974 11.9077 15.0028 11.9077 14.77Z" fill="white"/>
</svg>
