<svg width="28" height="28" viewBox="0 0 28 28" fill="none" xmlns="http://www.w3.org/2000/svg">
<path d="M26.3196 13.6598C26.3196 20.6516 20.6516 26.3196 13.6598 26.3196C6.66798 26.3196 1 20.6516 1 13.6598C1 6.66798 6.66798 1 13.6598 1C20.6516 1 26.3196 6.66798 26.3196 13.6598Z" fill="white" stroke="#2FEB42" stroke-width="2"/>
<path d="M21.1563 9.03028C20.6188 8.49292 19.7477 8.49292 19.2101 9.03028L12.4576 15.7829L9.53848 12.8638C9.00098 12.3263 8.12992 12.3263 7.59241 12.8637C7.05505 13.401 7.05505 14.2724 7.59241 14.8099L11.4846 18.702C11.7427 18.96 12.0926 19.105 12.4576 19.105C12.8225 19.105 13.1725 18.96 13.4306 18.702L21.1563 10.9763C21.6936 10.439 21.6936 9.56764 21.1563 9.03028Z" fill="#2FEB42"/>
</svg>
