<svg width="27" height="27" viewBox="0 0 27 27" fill="none" xmlns="http://www.w3.org/2000/svg">
<circle cx="13.5" cy="13.5" r="12.5" fill="white" stroke="#E6820C" stroke-width="2"/>
<path d="M12.5322 15.5534C12.5322 14.642 12.6429 13.9161 12.8643 13.3757C13.0856 12.8353 13.4893 12.3047 14.0752 11.7839C14.6676 11.2566 15.0615 10.8301 15.2568 10.5046C15.4521 10.1726 15.5498 9.82427 15.5498 9.45969C15.5498 8.35943 15.042 7.8093 14.0264 7.8093C13.5446 7.8093 13.1572 7.95904 12.8643 8.25851C12.5778 8.55148 12.4281 8.95838 12.415 9.47922H9.58301C9.59603 8.23573 9.99642 7.26242 10.7842 6.5593C11.5785 5.85617 12.6592 5.50461 14.0264 5.50461C15.4066 5.50461 16.4775 5.83989 17.2393 6.51047C18.001 7.17453 18.3818 8.11529 18.3818 9.33273C18.3818 9.88612 18.2581 10.4102 18.0107 10.905C17.7633 11.3933 17.3304 11.9369 16.7119 12.5359L15.9209 13.2878C15.4261 13.7631 15.1429 14.3197 15.0713 14.9577L15.0322 15.5534H12.5322ZM12.249 18.5515C12.249 18.1153 12.3955 17.7572 12.6885 17.4773C12.988 17.1908 13.3688 17.0476 13.8311 17.0476C14.2933 17.0476 14.6709 17.1908 14.9639 17.4773C15.2633 17.7572 15.4131 18.1153 15.4131 18.5515C15.4131 18.9812 15.2666 19.336 14.9736 19.6159C14.6872 19.8959 14.3063 20.0359 13.8311 20.0359C13.3558 20.0359 12.9717 19.8959 12.6787 19.6159C12.3923 19.336 12.249 18.9812 12.249 18.5515Z" fill="#E7820C"/>
</svg>
